<?xml version="1.0" encoding="utf-8"?>
<svg id="master-artboard" viewBox="0 0 399.79345703125 320.0001220703125" version="1.1" xmlns="http://www.w3.org/2000/svg" x="0px" y="0px" style="enable-background:new 0 0 336 235.2;" width="399.79345703125px" height="320.0001220703125px"><rect id="ee-background" x="0" y="0" width="399.79345703125" height="320.0001220703125" style="fill: white; fill-opacity: 0; pointer-events: none;"/><defs><style id="ee-google-fonts">@import url(https://fonts.googleapis.com/css?family=ABeeZee:400,400italic);</style><path id="text-path-0" d="M 107.4374771118164 413.8671875 A 100 -60 0 0 0 624.7431030273438 413.8671875 A 100 -60 0 0 0 107.4374771118164 413.8671875 Z" style="fill: none; stroke: red; stroke-width: 2;"/></defs><path d="M 173.12904357910156 299.04296875 L 206.3649139404297 296.714599609375 L 209.75462341308594 508.1673583984375 L 300.69183349609375 347.50811767578125 L 339.7297668457031 357.01983642578125 L 346.24163818359375 541.4227905273438 L 445.95703125 356.1417541503906 L 472.6756896972656 372.0283508300781 L 356.53936767578125 579.039794921875 L 317.831787109375 569.6085815429688 L 311.3199157714844 385.2055969238281 L 220.05235290527344 545.7843017578125 L 181.34475708007812 536.3530883789062 L 173.12904357910156 299.04296875 ZM 362.8169860839844 350.85760498046875 C 370.9811706542969 345.94769287109375 379.92425537109375 340.9978942871094 389.6462707519531 336.00823974609375 C 399.3743896484375 331.0158386230469 409.78277587890625 326.0243225097656 420.8714599609375 321.0336608886719 C 434.215576171875 315.0279235839844 446.8606872558594 311.3106994628906 458.8067932128906 309.8819580078125 C 470.75286865234375 308.4532165527344 481.61297607421875 308.9973449707031 491.3870849609375 311.5143127441406 C 501.1584777832031 314.02520751953125 509.7172546386719 318.5037841796875 517.0634155273438 324.9500732421875 C 524.4096069335938 331.3963317871094 530.207275390625 339.3400573730469 534.4564819335938 348.78125 C 539.6304321289062 360.2772521972656 542.020263671875 371.4837341308594 541.6260375976562 382.4006652832031 C 541.2257080078125 393.3203430175781 538.4597778320312 403.6378173828125 533.328369140625 413.3531188964844 C 528.1968994140625 423.0683898925781 520.8067016601562 432.0127868652344 511.1578369140625 440.1862487792969 C 501.5001220703125 448.35638427734375 489.99920654296875 455.4443359375 476.65509033203125 461.4500732421875 C 468.03460693359375 465.3298645019531 459.88995361328125 468.6263122558594 452.2211608886719 471.3393859863281 L 488.8096618652344 552.6351928710938 L 459.55596923828125 565.80126953125 L 362.8169860839844 350.85760498046875 M 469.40252685546875 435.4675598144531 C 487.8836669921875 427.1498107910156 500.2751770019531 416.696533203125 506.57708740234375 404.1076965332031 C 512.8850708007812 391.5161437988281 512.8966064453125 378.23828125 506.6117858886719 364.2740478515625 C 500.6087951660156 350.93603515625 491.0784606933594 342.5119323730469 478.020751953125 339.0017395019531 C 464.9657897949219 335.4976501464844 449.4044494628906 337.8114318847656 431.336669921875 345.943115234375 C 425.7923278808594 348.4384460449219 420.60455322265625 350.8975830078125 415.7733459472656 353.3205261230469 C 410.93603515625 355.7462158203125 406.45391845703125 358.13262939453125 402.3269958496094 360.4798583984375 L 440.9963073730469 446.3989562988281 C 444.4685363769531 445.3260498046875 448.58154296875 443.90625 453.33526611328125 442.1396179199219 C 458.0950927734375 440.3702087402344 463.45086669921875 438.1462097167969 469.40252685546875 435.4675598144531 Z" transform="matrix(1, 0, 0, 1, -156.00953674316406, -277.2496032714844)" style="fill: rgb(31, 120, 112); white-space: pre; color: rgb(51, 51, 51);"/></svg>